<svg width="33" height="48" viewBox="0 0 33 48" fill="none" xmlns="http://www.w3.org/2000/svg">
<path d="M16.576 0.538086C7.59181 0.538086 0.282471 7.84743 0.282471 16.8316C0.282471 28.1238 16.592 47.4131 16.592 47.4131C16.592 47.4131 32.8695 27.5685 32.8695 16.8316C32.8695 7.84743 25.5605 0.538086 16.576 0.538086ZM21.4921 21.6024C20.1365 22.9576 18.3564 23.6354 16.576 23.6354C14.7959 23.6354 13.0152 22.9576 11.6602 21.6024C8.94937 18.8918 8.94937 14.4813 11.6602 11.7705C12.9728 10.4573 14.7189 9.73398 16.576 9.73398C18.4331 9.73398 20.1789 10.4575 21.4921 11.7705C24.2029 14.4813 24.2029 18.8918 21.4921 21.6024Z" fill="white"/>
</svg>
